<svg width="32" height="32" viewBox="0 0 32 32" fill="none" xmlns="http://www.w3.org/2000/svg">
<path d="M16.0013 2.6665C14.2503 2.6665 12.5165 3.01138 10.8989 3.68144C9.28118 4.35151 7.81133 5.33363 6.57321 6.57175C4.07273 9.07223 2.66797 12.4636 2.66797 15.9998C2.66797 21.8932 6.49464 26.8932 11.788 28.6665C12.4546 28.7732 12.668 28.3598 12.668 27.9998V25.7465C8.97464 26.5465 8.18797 23.9598 8.18797 23.9598C7.57464 22.4132 6.70797 21.9998 6.70797 21.9998C5.49464 21.1732 6.8013 21.1998 6.8013 21.1998C8.13464 21.2932 8.8413 22.5732 8.8413 22.5732C10.0013 24.5998 11.9613 23.9998 12.7213 23.6798C12.8413 22.8132 13.188 22.2265 13.5613 21.8932C10.6013 21.5598 7.49464 20.4132 7.49464 15.3332C7.49464 13.8532 8.0013 12.6665 8.86797 11.7198C8.73464 11.3865 8.26797 9.99984 9.0013 8.19984C9.0013 8.19984 10.1213 7.83984 12.668 9.55984C13.7213 9.2665 14.868 9.11984 16.0013 9.11984C17.1346 9.11984 18.2813 9.2665 19.3346 9.55984C21.8813 7.83984 23.0013 8.19984 23.0013 8.19984C23.7346 9.99984 23.268 11.3865 23.1346 11.7198C24.0013 12.6665 24.508 13.8532 24.508 15.3332C24.508 20.4265 21.388 21.5465 18.4146 21.8798C18.8946 22.2932 19.3346 23.1065 19.3346 24.3465V27.9998C19.3346 28.3598 19.548 28.7865 20.228 28.6665C25.5213 26.8798 29.3346 21.8932 29.3346 15.9998C29.3346 14.2489 28.9898 12.5151 28.3197 10.8974C27.6496 9.27972 26.6675 7.80986 25.4294 6.57175C24.1913 5.33363 22.7214 4.35151 21.1037 3.68144C19.4861 3.01138 17.7523 2.6665 16.0013 2.6665Z" fill="#009FB7"/>
</svg>
