<svg width="32" height="32" viewBox="0 0 32 32" fill="none" xmlns="http://www.w3.org/2000/svg">
<path d="M10.4013 2.6665H21.6013C25.868 2.6665 29.3346 6.13317 29.3346 10.3998V21.5998C29.3346 23.6508 28.5199 25.6178 27.0696 27.0681C25.6193 28.5184 23.6523 29.3332 21.6013 29.3332H10.4013C6.13464 29.3332 2.66797 25.8665 2.66797 21.5998V10.3998C2.66797 8.34883 3.48273 6.38183 4.93301 4.93155C6.38329 3.48126 8.35029 2.6665 10.4013 2.6665M10.1346 5.33317C8.8616 5.33317 7.6407 5.83888 6.74052 6.73906C5.84035 7.63923 5.33464 8.86013 5.33464 10.1332V21.8665C5.33464 24.5198 7.4813 26.6665 10.1346 26.6665H21.868C23.141 26.6665 24.3619 26.1608 25.2621 25.2606C26.1623 24.3604 26.668 23.1395 26.668 21.8665V10.1332C26.668 7.47984 24.5213 5.33317 21.868 5.33317H10.1346ZM23.0013 7.33317C23.4433 7.33317 23.8673 7.50877 24.1798 7.82133C24.4924 8.13389 24.668 8.55781 24.668 8.99984C24.668 9.44186 24.4924 9.86579 24.1798 10.1783C23.8673 10.4909 23.4433 10.6665 23.0013 10.6665C22.5593 10.6665 22.1354 10.4909 21.8228 10.1783C21.5102 9.86579 21.3346 9.44186 21.3346 8.99984C21.3346 8.55781 21.5102 8.13389 21.8228 7.82133C22.1354 7.50877 22.5593 7.33317 23.0013 7.33317ZM16.0013 9.33317C17.7694 9.33317 19.4651 10.0355 20.7153 11.2858C21.9656 12.536 22.668 14.2317 22.668 15.9998C22.668 17.7679 21.9656 19.4636 20.7153 20.7139C19.4651 21.9641 17.7694 22.6665 16.0013 22.6665C14.2332 22.6665 12.5375 21.9641 11.2873 20.7139C10.037 19.4636 9.33464 17.7679 9.33464 15.9998C9.33464 14.2317 10.037 12.536 11.2873 11.2858C12.5375 10.0355 14.2332 9.33317 16.0013 9.33317M16.0013 11.9998C14.9404 11.9998 13.923 12.4213 13.1729 13.1714C12.4227 13.9216 12.0013 14.939 12.0013 15.9998C12.0013 17.0607 12.4227 18.0781 13.1729 18.8283C13.923 19.5784 14.9404 19.9998 16.0013 19.9998C17.0622 19.9998 18.0796 19.5784 18.8297 18.8283C19.5799 18.0781 20.0013 17.0607 20.0013 15.9998C20.0013 14.939 19.5799 13.9216 18.8297 13.1714C18.0796 12.4213 17.0622 11.9998 16.0013 11.9998Z" fill="#009FB7"/>
</svg>
