<svg width="28" height="28" viewBox="0 0 28 28" fill="none" xmlns="http://www.w3.org/2000/svg">
<path d="M22.224 5.72857C21.1544 4.64815 19.8803 3.79151 18.4762 3.20863C17.0721 2.62574 15.5659 2.32827 14.0456 2.33357C7.67563 2.33357 2.48396 7.52523 2.48396 13.8952C2.48396 15.9369 3.02063 17.9202 4.02396 19.6702L2.39062 25.6669L8.51563 24.0569C10.2073 24.9786 12.109 25.4686 14.0456 25.4686C20.4156 25.4686 25.6073 20.2769 25.6073 13.9069C25.6073 10.8152 24.4056 7.91023 22.224 5.72857V5.72857ZM14.0456 23.5086C12.319 23.5086 10.6273 23.0419 9.14563 22.1669L8.79563 21.9569L5.15563 22.9136L6.12396 19.3669L5.89063 19.0052C4.93133 17.4734 4.42196 15.7027 4.42063 13.8952C4.42063 8.59856 8.73729 4.2819 14.034 4.2819C16.6006 4.2819 19.0156 5.28523 20.824 7.10523C21.7194 7.99652 22.4289 9.05667 22.9116 10.2242C23.3942 11.3918 23.6403 12.6435 23.6356 13.9069C23.659 19.2036 19.3423 23.5086 14.0456 23.5086V23.5086ZM19.319 16.3219C19.0273 16.1819 17.604 15.4819 17.3473 15.3769C17.079 15.2836 16.8923 15.2369 16.694 15.5169C16.4956 15.8086 15.9473 16.4619 15.784 16.6486C15.6206 16.8469 15.4456 16.8702 15.154 16.7186C14.8623 16.5786 13.929 16.2636 12.8323 15.2836C11.969 14.5136 11.3973 13.5686 11.2223 13.2769C11.059 12.9852 11.199 12.8336 11.3506 12.6819C11.479 12.5536 11.6423 12.3436 11.7823 12.1802C11.9223 12.0169 11.9806 11.8886 12.074 11.7019C12.1673 11.5036 12.1206 11.3402 12.0506 11.2002C11.9806 11.0602 11.3973 9.6369 11.164 9.05357C10.9306 8.49357 10.6856 8.56357 10.5106 8.5519H9.95062C9.75229 8.5519 9.44896 8.6219 9.18063 8.91357C8.92396 9.20523 8.17729 9.90523 8.17729 11.3286C8.17729 12.7519 9.21563 14.1286 9.35563 14.3152C9.49563 14.5136 11.3973 17.4302 14.2906 18.6786C14.979 18.9819 15.5156 19.1569 15.9356 19.2852C16.624 19.5069 17.254 19.4719 17.7556 19.4019C18.3156 19.3202 19.4706 18.7019 19.704 18.0252C19.949 17.3486 19.949 16.7769 19.8673 16.6486C19.7856 16.5202 19.6106 16.4619 19.319 16.3219V16.3219Z" fill="#009FB7"/>
</svg>
